<svg width="25" height="25" viewBox="0 0 25 25" fill="none" xmlns="http://www.w3.org/2000/svg">
    <path fill-rule="evenodd" clip-rule="evenodd" d="M6.29932 3.07031H9.73264V4.51357H14.3624V3.07031H17.7957V4.51357H18.6893C19.5912 4.51357 20.3224 5.2447 20.3224 6.1466V19.4373C20.3224 20.3392 19.5912 21.0703 18.6893 21.0703H5.39865C4.49676 21.0703 3.76562 20.3392 3.76562 19.4373V6.1466C3.76562 5.2447 4.49676 4.51357 5.39865 4.51357H6.29932V3.07031ZM4.58214 19.4373V9.68576H19.5059V19.4373C19.5059 19.8882 19.1403 20.2538 18.6893 20.2538H5.39865C4.94771 20.2538 4.58214 19.8882 4.58214 19.4373ZM5.82812 11.1758H8.38672V13.7344H5.82812V11.1758ZM13.3242 11.1758H10.7656V13.7344H13.3242V11.1758ZM15.7031 11.1758H18.2617V13.7344H15.7031V11.1758ZM8.38672 15.9561H5.82812V18.5146H8.38672V15.9561ZM10.7656 15.9561H13.3242V18.5146H10.7656V15.9561ZM18.2617 15.9561H15.7031V18.5146H18.2617V15.9561Z" fill="#000000"/>
</svg>
